{
    "asset" : {
        "generator" : "Khronos glTF Blender I/O v0.9.33",
        "version" : "2.0"
    },
    "scene" : 0,
    "scenes" : [
        {
            "name" : "Scene",
            "nodes" : [
                0
            ]
        }
    ],
    "nodes" : [
        {
            "mesh" : 0,
            "name" : "_5000_Inuit",
            "rotation" : [
                0.7067613005638123,
                0.022102883085608482,
                -0.022102879360318184,
                0.7067611813545227
            ],
            "scale" : [
                0.004103314597159624,
                0.004103314597159624,
                0.004103315062820911
            ]
        }
    ],
    "materials" : [
        {
            "doubleSided" : true,
            "name" : "Material_001",
            "pbrMetallicRoughness" : {
                "baseColorFactor" : [
                    0.800000011920929,
                    0.800000011920929,
                    0.800000011920929,
                    1
                ],
                "metallicFactor" : 1,
                "roughnessFactor" : 0.5527864098548889
            }
        }
    ],
    "meshes" : [
        {
            "name" : "Scene",
            "primitives" : [
                {
                    "attributes" : {
                        "POSITION" : 0,
                        "NORMAL" : 1,
                        "TEXCOORD_0" : 2
                    },
                    "indices" : 3,
                    "material" : 0
                }
            ]
        }
    ],
    "accessors" : [
        {
            "bufferView" : 0,
            "componentType" : 5126,
            "count" : 2802,
            "max" : [
                64.8605728149414,
                8.686280250549316,
                116.21149444580078
            ],
            "min" : [
                -65.6172866821289,
                -65.12820434570312,
                -101.7944107055664
            ],
            "type" : "VEC3"
        },
        {
            "bufferView" : 1,
            "componentType" : 5126,
            "count" : 2802,
            "type" : "VEC3"
        },
        {
            "bufferView" : 2,
            "componentType" : 5126,
            "count" : 2802,
            "type" : "VEC2"
        },
        {
            "bufferView" : 3,
            "componentType" : 5123,
            "count" : 14478,
            "type" : "SCALAR"
        }
    ],
    "bufferViews" : [
        {
            "buffer" : 0,
            "byteLength" : 33624,
            "byteOffset" : 0
        },
        {
            "buffer" : 0,
            "byteLength" : 33624,
            "byteOffset" : 33624
        },
        {
            "buffer" : 0,
            "byteLength" : 22416,
            "byteOffset" : 67248
        },
        {
            "buffer" : 0,
            "byteLength" : 28956,
            "byteOffset" : 89664
        }
    ],
    "buffers" : [
        {
            "byteLength" : 118620,
            "uri" : "data:application/octet-stream;base64,"
        }
    ]
}
